<?xml version="1.0" encoding="iso-8859-1"?>
<!-- Uploaded to: SVG Repo, www.svgrepo.com, Generator: SVG Repo Mixer Tools -->
<svg version="1.1" id="Layer_1" xmlns="http://www.w3.org/2000/svg" xmlns:xlink="http://www.w3.org/1999/xlink" 
	 viewBox="0 0 512 512" xml:space="preserve">
<path style="fill:#FFFC99;" d="M378.174,172.433L378.174,172.433V123.91V79.976C378.172,35.807,342.367,0,298.197,0h-84.396
	c-44.17,0-79.976,35.807-79.976,79.976v43.934v48.523l0,0L89.391,512h333.218L378.174,172.433z"/>
<path style="fill:#B5CDDF;" d="M298.197,0h-84.396c-44.17,0-79.976,35.807-79.976,79.976v43.934v48.523h244.347V123.91V79.976
	C378.172,35.807,342.367,0,298.197,0z"/>
<path style="fill:#C9E5F9;" d="M255.999,0h-42.198c-44.17,0-79.976,35.807-79.976,79.976v43.934v48.523h122.174V0z"/>
<polygon style="fill:#FFFC99;" points="133.825,172.433 215.275,172.433 200.463,512 89.391,512 "/>
<polygon style="fill:#F7EE00;" points="215.275,172.433 200.463,512 311.536,512 296.724,172.433 "/>
<g>
	<rect x="188.897" y="49.674" style="fill:#088690;" width="31.283" height="26.454"/>
	<rect x="240.358" y="49.674" style="fill:#088690;" width="31.283" height="26.454"/>
	<rect x="291.819" y="49.674" style="fill:#088690;" width="31.283" height="26.454"/>
	<rect x="214.622" y="95.267" style="fill:#088690;" width="31.283" height="26.454"/>
	<rect x="266.094" y="95.267" style="fill:#088690;" width="31.283" height="26.454"/>
</g>
</svg>