<?xml version="1.0" encoding="iso-8859-1"?>
<!-- Uploaded to: SVG Repo, www.svgrepo.com, Generator: SVG Repo Mixer Tools -->
<svg height="800px" width="800px" version="1.1" id="Layer_1" xmlns="http://www.w3.org/2000/svg" xmlns:xlink="http://www.w3.org/1999/xlink" 
	 viewBox="0 0 511.999 511.999" xml:space="preserve">
<g>
	<path style="fill:#F24141;" d="M503.385,349.673c-4.756,0-8.612-3.856-8.612-8.612v-144.55c0-48.514-13.31-96.076-38.492-137.544
		c-2.469-4.065-1.175-9.361,2.891-11.83c4.066-2.469,9.363-1.175,11.831,2.891c26.818,44.163,40.994,94.816,40.994,146.483v144.55
		C511.997,345.817,508.141,349.673,503.385,349.673z"/>
	<path style="fill:#F24141;" d="M8.612,349.673c-4.756,0-8.612-3.856-8.612-8.612v-144.55C0,144.845,14.175,94.191,40.994,50.027
		c2.468-4.066,7.764-5.36,11.831-2.891c4.065,2.469,5.359,7.765,2.891,11.83c-25.183,41.469-38.493,89.031-38.493,137.545v144.55
		C17.223,345.817,13.368,349.673,8.612,349.673z"/>
</g>
<g>
	<path style="fill:#495E77;" d="M236.07,320.289c0,2.595-0.207,5.236-0.62,7.9c-5.81,37.214-24.733,69.548-51.624,92.57
		s-61.752,36.743-99.425,36.743c-0.735,0-1.47-0.012-2.205-0.034c-40.831-1.171-73.578-34.631-73.578-75.76V341.06
		c0-39.361,31.909-71.282,71.282-71.282h105.545C213.806,269.778,236.07,292.892,236.07,320.289z"/>
	<path style="fill:#495E77;" d="M503.388,341.06v40.647c0,41.864-33.942,75.794-75.794,75.794c-27.557,0-53.611-7.349-76.15-20.312
		c-8.267-4.742-16.052-10.254-23.275-16.431c-26.892-23.022-45.826-55.356-51.624-92.57c-0.413-2.664-0.62-5.305-0.62-7.9
		c0-27.397,22.264-50.51,50.625-50.51h105.556C471.468,269.778,503.388,301.699,503.388,341.06z"/>
</g>
<g>
	<path style="fill:#62788E;" d="M503.388,341.06v40.647c0,41.864-33.942,75.794-75.794,75.794c-27.557,0-53.611-7.349-76.15-20.312
		c42.955-72.947,55.448-137.707,59.065-167.411h21.598C471.468,269.778,503.388,301.699,503.388,341.06z"/>
	<path style="fill:#62788E;" d="M236.07,320.289c0,2.595-0.207,5.236-0.62,7.9c-5.81,37.214-24.733,69.548-51.624,92.57
		s-61.752,36.743-99.425,36.743c-0.735,0-1.47-0.012-2.205-0.034c53.209-81.042,67.745-155.263,71.695-187.689h31.553
		C213.806,269.778,236.07,292.892,236.07,320.289z"/>
</g>
<path style="fill:#F2D546;" d="M432.106,261.167H326.55c-0.015,0-0.03,0.001-0.045,0.001H185.488c-0.015,0-0.03-0.001-0.045-0.001
	H79.898c-44.054,0-79.894,35.84-79.894,79.894v40.647c0,22.119,8.495,43.027,23.919,58.872
	c15.391,15.81,35.998,24.865,58.003,25.496c0.824,0.025,1.649,0.039,2.473,0.039c38.491,0,75.79-13.784,105.025-38.814
	c27.348-23.413,46.061-55.324,53.22-90.497h26.7c7.147,35.16,25.86,67.074,53.226,90.501c7.663,6.554,15.935,12.394,24.579,17.352
	c24.409,14.038,52.226,21.458,80.444,21.458c46.542,0,84.406-37.865,84.406-84.406v-40.647
	C512,297.006,476.159,261.167,432.106,261.167z M284.799,278.391c-10.636,10.559-17.277,25.112-17.469,41.188h-22.667
	c-0.192-16.075-6.832-30.629-17.469-41.188L284.799,278.391L284.799,278.391z M226.941,326.86
	c-5.306,33.981-22.606,65.003-48.716,87.357c-26.118,22.359-59.438,34.673-93.824,34.673c-0.645,0-1.291-0.01-1.958-0.031
	c-17.527-0.503-33.926-7.71-46.177-20.295c-12.276-12.61-19.036-29.251-19.036-46.857V341.06c0-34.556,28.113-62.67,62.67-62.67
	h105.522c0.008,0,0.015,0.001,0.022,0.001h0.046c23.146,0.024,41.969,18.809,41.969,41.898
	C227.458,322.437,227.283,324.651,226.941,326.86z M494.777,381.708c0,37.044-30.139,67.183-67.183,67.183
	c-25.209,0-50.056-6.628-71.865-19.171c-7.723-4.43-15.113-9.647-21.96-15.503c-26.122-22.364-43.422-53.387-48.715-87.349
	c-0.343-2.217-0.518-4.431-0.518-6.579c0-23.089,18.823-41.874,41.969-41.898h0.048c0.008,0,0.015-0.001,0.022-0.001h105.53
	c34.557,0,62.67,28.113,62.67,62.67v40.648H494.777z"/>
</svg>